<svg width="24" height="24" viewBox="0 0 24 24" fill="none" xmlns="http://www.w3.org/2000/svg">
<path fill-rule="evenodd" clip-rule="evenodd" d="M8 2.00006C8.55228 2.00006 9 2.44778 9 3.00006H17C19.7614 3.00006 22 5.23864 22 8.00006V17.0001C22 19.7615 19.7614 22.0001 17 22.0001H7C4.23858 22.0001 2 19.7615 2 17.0001V8.00006C2 5.23864 4.23858 3.00006 7 3.00006C7 2.44778 7.44772 2.00006 8 2.00006ZM7 5.00006C5.34315 5.00006 4 6.34321 4 8.00006V17.0001C4 18.6569 5.34315 20.0001 7 20.0001H17C18.6569 20.0001 20 18.6569 20 17.0001V8.00006C20 6.34321 18.6569 5.00006 17 5.00006H9V6.00006C9 6.55235 8.55228 7.00006 8 7.00006C7.44772 7.00006 7 6.55235 7 6.00006V5.00006Z" fill="#4F4F4F"/>
<path fill-rule="evenodd" clip-rule="evenodd" d="M16 2.00006C16.5523 2.00006 17 2.44778 17 3.00006V6.00006C17 6.55235 16.5523 7.00006 16 7.00006C15.4477 7.00006 15 6.55235 15 6.00006V3.00006C15 2.44778 15.4477 2.00006 16 2.00006Z" fill="#4F4F4F"/>
<path fill-rule="evenodd" clip-rule="evenodd" d="M15.684 10.2705C16.0869 10.6483 16.1073 11.2811 15.7296 11.684L11.9796 15.684C11.6213 16.0661 11.0289 16.1071 10.6215 15.7779L8.37151 13.9597C7.94195 13.6126 7.87512 12.9829 8.22224 12.5534C8.56936 12.1238 9.19899 12.057 9.62855 12.4041L11.1559 13.6383L14.2705 10.3161C14.6482 9.91321 15.2811 9.8928 15.684 10.2705Z" fill="#4F4F4F"/>
</svg>
