<svg width="24" height="24" viewBox="0 0 24 24" fill="none" xmlns="http://www.w3.org/2000/svg">
<path fill-rule="evenodd" clip-rule="evenodd" d="M12 10C10.8954 10 10 10.8954 10 12C10 13.1046 10.8954 14 12 14C13.1046 14 14 13.1046 14 12C14 10.8954 13.1046 10 12 10ZM8 12C8 9.79086 9.79086 8 12 8C14.2091 8 16 9.79086 16 12C16 14.2091 14.2091 16 12 16C9.79086 16 8 14.2091 8 12Z" fill="#1C9351"/>
<path fill-rule="evenodd" clip-rule="evenodd" d="M8.7297 4.54104C8.7297 3.13766 9.86736 2 11.2707 2H12.7294C14.1328 2 15.2704 3.13766 15.2704 4.54104C15.2704 4.74442 15.4107 5.01577 15.7459 5.19782C15.8491 5.25384 15.9508 5.31209 16.051 5.37252C16.3853 5.57406 16.6992 5.56113 16.8834 5.45569C18.1072 4.75547 19.6667 5.17332 20.3765 6.39162L21.0809 7.60076C21.792 8.8214 21.3724 10.3877 20.1462 11.0892C19.9684 11.1909 19.8013 11.4496 19.8094 11.8346C19.8106 11.8896 19.8112 11.9448 19.8112 12C19.8112 12.0552 19.8106 12.1104 19.8094 12.1654C19.8013 12.5504 19.9684 12.8091 20.1462 12.9108C21.3723 13.6123 21.792 15.1786 21.0809 16.3992L20.3764 17.6084C19.6667 18.8267 18.1072 19.2445 16.8834 18.5443C16.6991 18.4389 16.3853 18.4259 16.051 18.6275C15.9508 18.6879 15.849 18.7462 15.7459 18.8022C15.4107 18.9842 15.2704 19.2556 15.2704 19.459C15.2704 20.8623 14.1328 22 12.7294 22H11.2707C9.86736 22 8.7297 20.8623 8.7297 19.459C8.7297 19.2556 8.58945 18.9842 8.25424 18.8022C8.15109 18.7462 8.04936 18.6879 7.94912 18.6275C7.61481 18.4259 7.30099 18.4389 7.11673 18.5443C5.89293 19.2445 4.33345 18.8267 3.6237 17.6084L2.91926 16.3992C2.20815 15.1786 2.62781 13.6123 3.85395 12.9108C4.03171 12.8091 4.19885 12.5504 4.19071 12.1654C4.18955 12.1104 4.18896 12.0553 4.18896 12C4.18896 11.9448 4.18955 11.8896 4.19071 11.8346C4.19885 11.4497 4.0317 11.191 3.85393 11.0892C2.62778 10.3877 2.20812 8.82141 2.91923 7.60077L3.62365 6.39163C4.3334 5.17333 5.8929 4.75548 7.1167 5.4557C7.30096 5.56113 7.6148 5.57407 7.94912 5.37253C8.04936 5.3121 8.15109 5.25384 8.25424 5.19782C8.58945 5.01577 8.7297 4.74442 8.7297 4.54104ZM11.2707 4C10.9719 4 10.7297 4.24223 10.7297 4.54104C10.7297 5.64708 10.0242 6.51246 9.20875 6.95535C9.132 6.99703 9.05629 7.04039 8.98167 7.08537C8.1862 7.5649 7.0842 7.74134 6.12345 7.19163C5.85309 7.03694 5.50857 7.12925 5.35178 7.39839L4.64736 8.60754C4.49533 8.86848 4.58505 9.20332 4.84718 9.3533C5.80949 9.90391 6.20989 10.9487 6.19026 11.8769C6.1894 11.9178 6.18896 11.9589 6.18896 12C6.18896 12.0412 6.1894 12.0822 6.19026 12.1231C6.2099 13.0513 5.8095 14.0961 4.8472 14.6467C4.58508 14.7967 4.49537 15.1315 4.64739 15.3924L5.35183 16.6016C5.50862 16.8708 5.85313 16.9631 6.12348 16.8084C7.08422 16.2587 8.18622 16.4351 8.98168 16.9146C9.05629 16.9596 9.132 17.003 9.20876 17.0447C10.0242 17.4875 10.7297 18.3529 10.7297 19.459C10.7297 19.7578 10.9719 20 11.2707 20H12.7294C13.0282 20 13.2704 19.7578 13.2704 19.459C13.2704 18.3529 13.9759 17.4875 14.7914 17.0447C14.8681 17.003 14.9438 16.9596 15.0185 16.9146C15.8139 16.4351 16.9159 16.2587 17.8767 16.8084C18.147 16.9631 18.4915 16.8708 18.6483 16.6016L19.3528 15.3924C19.5048 15.1315 19.4151 14.7967 19.1529 14.6467C18.1906 14.0961 17.7902 13.0513 17.8099 12.1231C17.8107 12.0822 17.8112 12.0412 17.8112 12C17.8112 11.9589 17.8107 11.9178 17.8099 11.8769C17.7902 10.9487 18.1907 9.9039 19.153 9.35329C19.4151 9.20331 19.5048 8.86848 19.3528 8.60753L18.6484 7.39839C18.4916 7.12924 18.147 7.03693 17.8767 7.19162C16.9159 7.74134 15.8139 7.5649 15.0185 7.08536C14.9438 7.04039 14.8681 6.99703 14.7914 6.95535C13.9759 6.51246 13.2704 5.64708 13.2704 4.54104C13.2704 4.24223 13.0282 4 12.7294 4H11.2707Z" fill="#1C9351"/>
</svg>
