<svg width="24" height="24" viewBox="0 0 24 24" fill="none" xmlns="http://www.w3.org/2000/svg">
<path fill-rule="evenodd" clip-rule="evenodd" d="M2 7C2 4.23858 4.23858 2 7 2H17C19.7614 2 22 4.23858 22 7V17C22 19.7614 19.7614 22 17 22H7C4.23858 22 2 19.7614 2 17V7ZM7 4C5.34315 4 4 5.34315 4 7V17C4 18.6569 5.34315 20 7 20H17C18.6569 20 20 18.6569 20 17V7C20 5.34315 18.6569 4 17 4H7Z" fill="#1C9351"/>
<path fill-rule="evenodd" clip-rule="evenodd" d="M7 12C7 12.5523 7.44772 13 8 13L16 13C16.5523 13 17 12.5523 17 12C17 11.4477 16.5523 11 16 11L8 11C7.44772 11 7 11.4477 7 12Z" fill="#1C9351"/>
<path fill-rule="evenodd" clip-rule="evenodd" d="M12.7071 7.29289C13.0976 7.68342 13.0976 8.31658 12.7071 8.70711L9.41421 12L12.7071 15.2929C13.0976 15.6834 13.0976 16.3166 12.7071 16.7071C12.3166 17.0976 11.6834 17.0976 11.2929 16.7071L7.29289 12.7071C6.90237 12.3166 6.90237 11.6834 7.29289 11.2929L11.2929 7.29289C11.6834 6.90237 12.3166 6.90237 12.7071 7.29289Z" fill="#1C9351"/>
</svg>
