<svg width="24" height="24" viewBox="0 0 24 24" fill="none" xmlns="http://www.w3.org/2000/svg">
<path fill-rule="evenodd" clip-rule="evenodd" d="M12 4.00006C10.3431 4.00006 9 5.34321 9 7.00006C9 8.65692 10.3431 10.0001 12 10.0001C13.6569 10.0001 15 8.65692 15 7.00006C15 5.34321 13.6569 4.00006 12 4.00006ZM7 7.00006C7 4.23864 9.23858 2.00006 12 2.00006C14.7614 2.00006 17 4.23864 17 7.00006C17 9.76148 14.7614 12.0001 12 12.0001C9.23858 12.0001 7 9.76148 7 7.00006Z" fill="#595959"/>
<path fill-rule="evenodd" clip-rule="evenodd" d="M11.9999 20.0001C9.07106 20.0001 7.33454 19.114 6.3353 17.9708C6.03082 17.6225 5.95147 17.3164 5.96068 17.0652C5.97049 16.7972 6.08635 16.487 6.34713 16.1692C6.8828 15.5165 7.90124 15.0001 8.99992 15.0001H14.9999C16.0986 15.0001 17.117 15.5165 17.6527 16.1692C17.9135 16.487 18.0293 16.7972 18.0392 17.0652C18.0484 17.3164 17.969 17.6225 17.6645 17.9708C16.6653 19.114 14.9288 20.0001 11.9999 20.0001ZM4.8295 19.2871C6.30206 20.9717 8.65319 22.0001 11.9999 22.0001C15.3466 22.0001 17.6978 20.9717 19.1703 19.2871C19.7746 18.5959 20.0675 17.8036 20.0378 16.992C20.0087 16.1972 19.6744 15.4801 19.1988 14.9005C18.2617 13.7586 16.6627 13.0001 14.9999 13.0001H8.99992C7.33717 13.0001 5.73815 13.7586 4.80107 14.9005C4.32547 15.4801 3.99113 16.1972 3.96202 16.992C3.93229 17.8036 4.22527 18.5959 4.8295 19.2871Z" fill="#595959"/>
</svg>
