<svg width="44" height="44" viewBox="0 0 44 44" fill="none" xmlns="http://www.w3.org/2000/svg">
<rect width="44" height="44" rx="6" fill="#1C9351" fill-opacity="0.1"/>
<path fill-rule="evenodd" clip-rule="evenodd" d="M14.7278 9.22414C14.6865 9.3475 14.4844 11.5866 14.2787 14.2C13.9907 17.8574 13.7854 19.4473 13.3872 21.1034C12.5379 24.6353 12.1333 26.441 12.0214 27.2C11.9194 27.8902 12.2036 32.9422 12.4224 34.3276L12.5286 35H21.6374H30.7464L30.8499 34.5069C30.9069 34.2358 30.9695 32.279 30.9891 30.1586C31.0232 26.472 31.0034 26.2251 30.5397 24.5103C30.2728 23.5241 30.0232 22.4752 29.9846 22.1793C29.9462 21.8834 29.7477 20.9555 29.5435 20.1172C29.3087 19.1527 29.1021 17.408 28.9812 15.3655C28.676 10.2068 28.591 9.37601 28.3478 9.17429C28.2156 9.06455 27.4906 9.00699 26.6228 9.0373L25.1259 9.08966V10.7931C25.1259 11.73 25.1911 13.2805 25.2708 14.2387L25.4157 15.9811L24.9385 16.1009C24.554 16.1973 24.3761 16.1215 24.0228 15.7103C23.2814 14.8475 22.6942 14.5611 21.6647 14.5599C20.6116 14.5584 19.7876 14.9042 19.1463 15.6162L18.7259 16.0828L18.8333 15.4552C18.8925 15.11 18.9918 13.7255 19.0539 12.3784L19.1671 9.92919L18.7024 9.46459C18.2671 9.02941 18.1292 9 16.5202 9C15.3058 9 14.7808 9.06563 14.7278 9.22414ZM17.6217 10.4793C17.5654 10.8984 17.4652 12.472 17.399 13.9759L17.2788 16.7103H18.1621C18.9562 16.7103 19.1159 16.6381 19.7458 15.9931C20.4056 15.3175 20.5072 15.2759 21.4977 15.2759C22.7369 15.2759 23.1417 15.457 23.5145 16.1778C23.7746 16.6802 23.852 16.7103 24.8872 16.7103H25.9843L25.857 13.7621L25.7297 10.8137L26.5935 10.7587C27.2173 10.7187 27.4572 10.6287 27.4572 10.4345C27.4572 10.2435 27.223 10.1492 26.6502 10.1094C25.3282 10.0174 25.3583 9.71724 26.6899 9.71724C28.1147 9.71724 27.9829 9.37046 28.2583 13.8414C28.3647 15.5672 28.4823 17.4396 28.5196 18.0023C28.5822 18.9456 28.7619 19.7893 29.9839 24.8749C30.3481 26.3906 30.4161 27.1249 30.4147 29.537C30.4139 31.1117 30.3623 32.8237 30.3001 33.3414L30.1869 34.2828H21.6295H13.0721L12.9608 33.0724C12.5777 28.907 12.6032 27.4562 13.1024 25.0483C13.3682 23.7662 13.7351 22.1524 13.9179 21.4621C14.4148 19.5833 14.7077 17.3125 15.1022 12.2814L15.2175 10.8109L16.047 10.7572C16.6407 10.7187 16.8764 10.6271 16.8764 10.4345C16.8764 10.2462 16.6476 10.149 16.1142 10.1105C14.9021 10.0226 15.2313 9.71724 16.5382 9.71724H17.7241L17.6217 10.4793ZM18.5801 11.4184C18.5801 12.8288 18.2515 15.2699 18.0128 15.6336C17.8624 15.8627 17.8495 15.8584 17.9273 15.6051C17.9777 15.441 18.0762 14.1322 18.1459 12.6967C18.2713 10.1171 18.5801 9.208 18.5801 11.4184ZM20.3286 21.9053C19.6213 22.9482 19.1181 23.8794 19.1181 24.1451C19.1181 24.5887 19.1491 24.6 20.3734 24.6H21.6288V25.3285C21.6288 26.0426 21.6405 26.056 22.2116 26.001C22.7287 25.9511 22.8009 25.8767 22.8522 25.342C22.8919 24.9269 23.0178 24.7108 23.2557 24.6486C23.7444 24.5207 23.7396 23.5266 23.2495 23.3986C22.9394 23.3174 22.8915 23.1223 22.846 21.7567L22.7945 20.2069L22.1668 20.1637C21.559 20.1219 21.5008 20.1771 20.3286 21.9053ZM23.2428 21.9103C23.2428 22.2283 23.3624 22.269 24.297 22.269C25.6348 22.269 25.9949 22.591 25.2828 23.1512C25.0165 23.3606 24.6099 23.5792 24.3795 23.6371C24.1248 23.7009 23.9602 23.8756 23.9602 24.0814C23.9602 24.4908 23.9302 24.4888 24.7901 24.1345C25.7537 23.7373 26.2915 23.1938 26.2915 22.6168C26.2915 21.9846 25.4241 21.5517 24.1573 21.5517C23.3624 21.5517 23.2428 21.5985 23.2428 21.9103ZM18.4782 22.719C17.6807 23.0692 16.7483 23.9972 16.8181 24.3712C16.921 24.9237 18.0064 25.318 19.3871 25.3043C21.032 25.2882 21.8069 24.9889 20.2495 24.9712C19.6389 24.9644 19.0894 24.8779 19.0284 24.7793C18.9675 24.6807 18.7004 24.5987 18.435 24.5973C18.1696 24.5957 17.8317 24.5182 17.6843 24.425C17.454 24.2796 17.4668 24.2159 17.774 23.9758C17.9707 23.822 18.3513 23.576 18.6195 23.4289C19.1827 23.1207 19.6337 22.4391 19.2589 22.463C19.1321 22.4709 18.7809 22.5862 18.4782 22.719ZM15.3938 29.3069C14.2837 31.1757 13.7199 32.3631 13.8192 32.6222C13.9156 32.8727 13.9636 32.8773 14.1756 32.6561C14.4871 32.3304 16.2487 29.1416 16.2487 28.9031C16.2487 28.5088 15.7193 28.7589 15.3938 29.3069ZM27.1882 30.3342C27.1882 30.5786 28.9923 33.0276 29.1724 33.0276C29.5022 33.0276 29.5316 32.6241 29.2348 32.168C28.3028 30.7356 27.1882 29.7369 27.1882 30.3342ZM15.5762 32.754C14.3571 33.3258 14.0669 33.5944 14.4276 33.8173C14.6761 33.9709 17.4096 32.7039 17.4723 32.4059C17.5624 31.9795 17.0114 32.0806 15.5762 32.754ZM24.2516 32.2741C24.0567 32.5895 24.4772 32.8217 25.9153 33.1931C26.7442 33.407 27.5661 33.6591 27.7418 33.7531C28.2214 34.0098 28.4436 33.9609 28.4436 33.5983C28.4436 33.3468 28.1274 33.1798 27.0537 32.8644C26.2892 32.6399 25.4298 32.383 25.144 32.2937C24.5061 32.0941 24.3648 32.091 24.2516 32.2741Z" fill="#1C9351"/>
</svg>
