<svg width="219" height="34" viewBox="0 0 219 34" fill="none" xmlns="http://www.w3.org/2000/svg">
<path d="M0.606196 28.1224V0.693863H14.007C17.4552 0.693863 20.0413 1.34692 21.7654 2.65305C23.5156 3.95917 24.3907 5.68325 24.3907 7.82529C24.3907 9.26203 24.038 10.5159 23.3327 11.5869C22.6274 12.6318 21.6609 13.4416 20.4331 14.0163C19.2054 14.591 17.7948 14.8784 16.2013 14.8784L16.9458 13.2718C18.6699 13.2718 20.198 13.5592 21.5303 14.1339C22.8625 14.6824 23.8944 15.5053 24.6258 16.6024C25.3833 17.6996 25.7621 19.0449 25.7621 20.6384C25.7621 22.9894 24.8348 24.831 22.9801 26.1633C21.1254 27.4694 18.3956 28.1224 14.7907 28.1224H0.606196ZM6.91477 23.342H14.3205C15.9662 23.342 17.207 23.0808 18.0429 22.5584C18.905 22.0098 19.336 21.1477 19.336 19.9722C19.336 18.8228 18.905 17.9739 18.0429 17.4253C17.207 16.8506 15.9662 16.5633 14.3205 16.5633H6.44456V11.9396H13.2233C14.7646 11.9396 15.9401 11.6784 16.7499 11.1559C17.5858 10.6073 18.0037 9.78448 18.0037 8.68733C18.0037 7.61631 17.5858 6.81958 16.7499 6.29713C15.9401 5.74856 14.7646 5.47427 13.2233 5.47427H6.91477V23.342ZM40.0994 28.1224V24.6253L40.0406 24.0963V18.3363C40.0406 16.9061 39.6487 15.8188 38.8651 15.0743C38.101 14.3298 36.9745 13.9575 35.4855 13.9575C34.4275 13.9575 33.4381 14.1437 32.5173 14.5159C31.6161 14.8686 30.8422 15.329 30.1957 15.8971L29.461 14.8392C30.2251 14.1535 31.1459 13.6245 32.2234 13.2522C33.301 12.8604 34.4275 12.6645 35.603 12.6645C37.5034 12.6645 38.963 13.1445 39.9818 14.1045C41.0006 15.0645 41.51 16.4947 41.51 18.3951V28.1224H40.0994ZM34.5745 28.24C33.4381 28.24 32.4487 28.0637 31.6063 27.711C30.7834 27.3388 30.1467 26.8196 29.6961 26.1535C29.2651 25.4873 29.0496 24.7233 29.0496 23.8612C29.0496 23.0775 29.2259 22.3722 29.5785 21.7453C29.9508 21.0988 30.5581 20.5796 31.4006 20.1877C32.243 19.7763 33.3696 19.5706 34.7802 19.5706H40.4226V20.7167H34.8096C33.2226 20.7167 32.1059 21.0106 31.4594 21.5984C30.8324 22.1861 30.519 22.9208 30.519 23.8024C30.519 24.782 30.8912 25.5657 31.6357 26.1535C32.3802 26.7412 33.4283 27.0351 34.7802 27.0351C36.0732 27.0351 37.1606 26.7412 38.0422 26.1535C38.9434 25.5657 39.6096 24.7135 40.0406 23.5967L40.452 24.5959C40.0406 25.7126 39.3353 26.6041 38.3361 27.2702C37.3565 27.9167 36.1026 28.24 34.5745 28.24ZM55.058 12.6645C56.3118 12.6645 57.3992 12.9094 58.32 13.3992C59.2604 13.8694 59.9853 14.5943 60.4947 15.5739C61.0237 16.5339 61.2882 17.729 61.2882 19.1592V28.1224H59.8188V19.2767C59.8188 17.5526 59.378 16.24 58.4963 15.3388C57.6343 14.4375 56.4196 13.9869 54.8522 13.9869C53.6571 13.9869 52.6188 14.2318 51.7371 14.7216C50.8555 15.2114 50.1796 15.8971 49.7094 16.7788C49.2588 17.6604 49.0335 18.7184 49.0335 19.9526V28.1224H47.5641V12.782H48.9747V17.0433L48.769 16.573C49.2392 15.3584 50.0131 14.4081 51.0906 13.7224C52.1682 13.0171 53.4906 12.6645 55.058 12.6645ZM68.4544 23.8906L68.4838 22.0392L78.6226 12.782H80.5034L73.7736 19.1004L72.892 19.8351L68.4544 23.8906ZM67.3377 28.1224V6.31672H68.8071V28.1224H67.3377ZM79.3279 28.1224L72.6275 19.7175L73.6267 18.6302L81.1499 28.1224H79.3279ZM103.828 28.5926C101.633 28.5926 99.5305 28.3053 97.5191 27.7306C95.5076 27.1298 93.888 26.3592 92.6603 25.4188L94.8154 20.6384C95.9909 21.4743 97.3754 22.1665 98.9688 22.7151C100.588 23.2375 102.221 23.4988 103.867 23.4988C105.121 23.4988 106.126 23.3812 106.884 23.1461C107.668 22.8849 108.242 22.5322 108.608 22.0882C108.974 21.6441 109.157 21.1347 109.157 20.56C109.157 19.8286 108.869 19.2539 108.295 18.8359C107.72 18.3918 106.962 18.0392 106.022 17.7779C105.082 17.4906 104.037 17.2294 102.887 16.9943C101.764 16.733 100.628 16.4196 99.4782 16.0539C98.355 15.6881 97.3231 15.2179 96.3827 14.6433C95.4423 14.0686 94.6717 13.311 94.0709 12.3706C93.4962 11.4302 93.2088 10.2286 93.2088 8.7657C93.2088 7.19835 93.6268 5.77468 94.4627 4.49468C95.3248 3.18856 96.6048 2.15672 98.3027 1.39917C100.027 0.615497 102.182 0.22366 104.768 0.22366C106.492 0.22366 108.19 0.432639 109.862 0.850598C111.534 1.24243 113.01 1.84325 114.29 2.65305L112.33 7.47264C111.05 6.74121 109.77 6.2057 108.49 5.86611C107.21 5.50039 105.957 5.31754 104.729 5.31754C103.501 5.31754 102.495 5.46121 101.712 5.74856C100.928 6.03591 100.366 6.41468 100.027 6.88488C99.6872 7.32897 99.5174 7.85141 99.5174 8.45223C99.5174 9.15754 99.8048 9.73223 100.379 10.1763C100.954 10.5943 101.712 10.9339 102.652 11.1951C103.593 11.4563 104.624 11.7175 105.748 11.9788C106.897 12.24 108.033 12.5404 109.157 12.88C110.306 13.2196 111.351 13.6767 112.291 14.2514C113.232 14.8261 113.989 15.5837 114.564 16.5241C115.165 17.4645 115.465 18.653 115.465 20.0898C115.465 21.631 115.034 23.0416 114.172 24.3216C113.31 25.6016 112.017 26.6335 110.293 27.4171C108.595 28.2008 106.44 28.5926 103.828 28.5926ZM129.334 28.1224V24.6253L129.275 24.0963V18.3363C129.275 16.9061 128.883 15.8188 128.1 15.0743C127.336 14.3298 126.209 13.9575 124.72 13.9575C123.662 13.9575 122.673 14.1437 121.752 14.5159C120.851 14.8686 120.077 15.329 119.43 15.8971L118.696 14.8392C119.46 14.1535 120.381 13.6245 121.458 13.2522C122.536 12.8604 123.662 12.6645 124.838 12.6645C126.738 12.6645 128.198 13.1445 129.217 14.1045C130.235 15.0645 130.745 16.4947 130.745 18.3951V28.1224H129.334ZM123.809 28.24C122.673 28.24 121.683 28.0637 120.841 27.711C120.018 27.3388 119.381 26.8196 118.931 26.1535C118.5 25.4873 118.284 24.7233 118.284 23.8612C118.284 23.0775 118.461 22.3722 118.813 21.7453C119.185 21.0988 119.793 20.5796 120.635 20.1877C121.478 19.7763 122.604 19.5706 124.015 19.5706H129.657V20.7167H124.044C122.457 20.7167 121.341 21.0106 120.694 21.5984C120.067 22.1861 119.754 22.9208 119.754 23.8024C119.754 24.782 120.126 25.5657 120.87 26.1535C121.615 26.7412 122.663 27.0351 124.015 27.0351C125.308 27.0351 126.395 26.7412 127.277 26.1535C128.178 25.5657 128.844 24.7135 129.275 23.5967L129.687 24.5959C129.275 25.7126 128.57 26.6041 127.571 27.2702C126.591 27.9167 125.337 28.24 123.809 28.24ZM155.901 12.6645C157.135 12.6645 158.203 12.9094 159.104 13.3992C160.025 13.8694 160.74 14.5943 161.249 15.5739C161.759 16.5339 162.013 17.729 162.013 19.1592V28.1224H160.544V19.2767C160.544 17.5526 160.123 16.24 159.28 15.3388C158.438 14.4375 157.262 13.9869 155.754 13.9869C154.598 13.9869 153.599 14.2318 152.756 14.7216C151.914 15.2114 151.267 15.8971 150.817 16.7788C150.366 17.6604 150.141 18.7184 150.141 19.9526V28.1224H148.671V19.2767C148.671 17.5526 148.25 16.24 147.408 15.3388C146.565 14.4375 145.39 13.9869 143.881 13.9869C142.725 13.9869 141.726 14.2318 140.884 14.7216C140.041 15.2114 139.395 15.8971 138.944 16.7788C138.493 17.6604 138.268 18.7184 138.268 19.9526V28.1224H136.799V12.782H138.209V17.0139L138.004 16.5437C138.454 15.3486 139.209 14.4081 140.267 13.7224C141.325 13.0171 142.598 12.6645 144.087 12.6645C145.615 12.6645 146.898 13.0563 147.937 13.84C148.995 14.6041 149.661 15.7502 149.935 17.2784L149.436 17.0726C149.847 15.76 150.621 14.702 151.757 13.8988C152.893 13.0759 154.275 12.6645 155.901 12.6645ZM175.78 28.24C174.428 28.24 173.204 27.9265 172.107 27.2996C171.029 26.6726 170.167 25.7812 169.521 24.6253C168.894 23.4498 168.58 22.0588 168.58 20.4522C168.58 18.8457 168.894 17.4645 169.521 16.3086C170.167 15.133 171.029 14.2318 172.107 13.6049C173.204 12.9779 174.428 12.6645 175.78 12.6645C177.23 12.6645 178.523 12.9975 179.659 13.6637C180.815 14.3102 181.717 15.2212 182.363 16.3967C183.029 17.5722 183.362 18.9241 183.362 20.4522C183.362 21.9804 183.029 23.3322 182.363 24.5077C181.717 25.6833 180.815 26.6041 179.659 27.2702C178.523 27.9167 177.23 28.24 175.78 28.24ZM168.081 33.8237V12.782H169.491V17.8073L169.256 20.4816L169.55 23.1559V33.8237H168.081ZM175.692 26.9175C176.868 26.9175 177.926 26.653 178.866 26.1241C179.806 25.5755 180.541 24.8114 181.07 23.8318C181.619 22.8522 181.893 21.7257 181.893 20.4522C181.893 19.1592 181.619 18.0326 181.07 17.0726C180.541 16.093 179.806 15.3388 178.866 14.8098C177.926 14.2612 176.868 13.9869 175.692 13.9869C174.517 13.9869 173.459 14.2612 172.518 14.8098C171.597 15.3388 170.863 16.093 170.314 17.0726C169.785 18.0326 169.521 19.1592 169.521 20.4522C169.521 21.7257 169.785 22.8522 170.314 23.8318C170.863 24.8114 171.597 25.5755 172.518 26.1241C173.459 26.653 174.517 26.9175 175.692 26.9175ZM197.523 28.1224V24.6253L197.464 24.0963V18.3363C197.464 16.9061 197.072 15.8188 196.289 15.0743C195.524 14.3298 194.398 13.9575 192.909 13.9575C191.851 13.9575 190.862 14.1437 189.941 14.5159C189.04 14.8686 188.266 15.329 187.619 15.8971L186.884 14.8392C187.649 14.1535 188.569 13.6245 189.647 13.2522C190.724 12.8604 191.851 12.6645 193.027 12.6645C194.927 12.6645 196.387 13.1445 197.405 14.1045C198.424 15.0645 198.933 16.4947 198.933 18.3951V28.1224H197.523ZM191.998 28.24C190.862 28.24 189.872 28.0637 189.03 27.711C188.207 27.3388 187.57 26.8196 187.12 26.1535C186.689 25.4873 186.473 24.7233 186.473 23.8612C186.473 23.0775 186.649 22.3722 187.002 21.7453C187.374 21.0988 187.982 20.5796 188.824 20.1877C189.667 19.7763 190.793 19.5706 192.204 19.5706H197.846V20.7167H192.233C190.646 20.7167 189.529 21.0106 188.883 21.5984C188.256 22.1861 187.942 22.9208 187.942 23.8024C187.942 24.782 188.315 25.5657 189.059 26.1535C189.804 26.7412 190.852 27.0351 192.204 27.0351C193.497 27.0351 194.584 26.7412 195.466 26.1535C196.367 25.5657 197.033 24.7135 197.464 23.5967L197.875 24.5959C197.464 25.7126 196.759 26.6041 195.76 27.2702C194.78 27.9167 193.526 28.24 191.998 28.24ZM212.481 12.6645C213.735 12.6645 214.823 12.9094 215.743 13.3992C216.684 13.8694 217.409 14.5943 217.918 15.5739C218.447 16.5339 218.712 17.729 218.712 19.1592V28.1224H217.242V19.2767C217.242 17.5526 216.801 16.24 215.92 15.3388C215.058 14.4375 213.843 13.9869 212.276 13.9869C211.081 13.9869 210.042 14.2318 209.161 14.7216C208.279 15.2114 207.603 15.8971 207.133 16.7788C206.682 17.6604 206.457 18.7184 206.457 19.9526V28.1224H204.988V6.31672H206.457V17.0433L206.192 16.573C206.663 15.3584 207.437 14.4081 208.514 13.7224C209.592 13.0171 210.914 12.6645 212.481 12.6645Z" fill="#1C9351"/>
</svg>
